<?xml version="1.0" standalone="no"?>
<!DOCTYPE svg PUBLIC "-//W3C//DTD SVG 20010904//EN"
 "http://www.w3.org/TR/2001/REC-SVG-20010904/DTD/svg10.dtd">
<svg version="1.0" xmlns="http://www.w3.org/2000/svg"
 width="260.000000pt" height="260.000000pt" viewBox="0 0 260.000000 260.000000"
 preserveAspectRatio="xMidYMid meet">
<metadata>
Created by potrace 1.14, written by Peter Selinger 2001-2017
</metadata>
<g transform="translate(0.000000,260.000000) scale(0.100000,-0.100000)"
fill="#000000" stroke="none">
<path d="M203 2220 c-36 -3 -60 -13 -80 -30 -15 -14 -40 -30 -55 -37 -17 -7
-28 -22 -33 -42 -4 -17 -13 -31 -21 -31 -12 0 -14 -109 -14 -750 0 -644 2
-750 14 -750 8 0 18 -10 22 -22 12 -38 47 -78 68 -78 11 0 28 -8 39 -18 18
-16 59 -17 510 -20 270 -1 493 -5 496 -8 3 -3 5 -32 3 -65 -3 -80 -43 -122
-81 -86 -11 10 -14 10 -18 0 -6 -16 -35 -17 -50 -2 -8 8 -13 8 -17 0 -9 -13
-113 -15 -118 -2 -5 16 -105 16 -123 1 -13 -11 -21 -11 -36 -2 -16 10 -24 9
-44 -4 -29 -19 -30 -24 -12 -48 13 -17 49 -18 651 -20 677 -1 661 -2 653 44
-2 13 -37 15 -232 18 -219 2 -230 3 -252 24 -18 16 -23 32 -23 68 0 84 -28 80
507 80 455 0 471 1 496 20 14 11 32 20 41 20 8 0 21 10 27 23 12 22 18 30 59
75 20 22 20 30 20 762 0 651 -2 740 -15 740 -8 0 -15 4 -15 9 0 17 -89 101
-106 101 -10 0 -25 7 -34 15 -14 12 -162 15 -1095 17 -594 2 -1103 1 -1132 -2z
m1437 -82 l775 -3 42 -28 c28 -18 45 -36 48 -55 3 -15 10 -40 15 -56 7 -23 6
-36 -6 -54 l-16 -24 -1191 3 c-1302 3 -1227 -1 -1227 59 0 43 28 112 52 129
42 30 115 36 425 34 169 -2 657 -4 1083 -5z m-1329 -355 c11 -12 14 -61 14
-217 0 -223 -5 -246 -54 -246 -53 0 -58 22 -54 244 2 109 8 207 14 217 12 24
62 25 80 2z m-5 -608 c24 -37 28 -183 6 -212 -29 -35 -57 -38 -80 -6 -16 23
-19 42 -17 108 2 91 9 113 39 125 31 13 34 12 52 -15z m2073 -475 c90 -4 116
-8 124 -21 26 -42 -37 -130 -105 -147 -29 -7 -245 -9 -663 -6 -341 3 -832 6
-1090 7 -532 2 -501 -2 -549 83 -14 25 -26 52 -26 58 0 38 -10 37 1110 34 597
-2 1136 -5 1199 -8z m-1031 -286 c44 -30 13 -114 -43 -114 -35 0 -55 26 -55
70 0 57 49 79 98 44z"/>
</g>
</svg>
